<?xml version="1.0" encoding="UTF-8"?>
<svg width="481" height="142" inkscape:version="1.0.2 (e86c870879, 2021-01-15)" sodipodi:docname="Berserk_Logo.svg" version="1.1" viewBox="0 0 481 142" xmlns="http://www.w3.org/2000/svg" xmlns:cc="http://creativecommons.org/ns#" xmlns:dc="http://purl.org/dc/elements/1.1/" xmlns:inkscape="http://www.inkscape.org/namespaces/inkscape" xmlns:rdf="http://www.w3.org/1999/02/22-rdf-syntax-ns#" xmlns:sodipodi="http://sodipodi.sourceforge.net/DTD/sodipodi-0.dtd">
 <sodipodi:namedview bordercolor="#666666" borderopacity="1" gridtolerance="10" guidetolerance="10" inkscape:current-layer="g1087" inkscape:cx="380.90405" inkscape:cy="-20.9465" inkscape:pageopacity="0" inkscape:pageshadow="2" inkscape:window-height="1014" inkscape:window-maximized="1" inkscape:window-width="1920" inkscape:window-x="0" inkscape:window-y="36" inkscape:zoom="1.3211192" objecttolerance="10" pagecolor="#ffffff" showgrid="false"/>
 <metadata>
  <rdf:RDF>
   <cc:Work rdf:about="">
    <dc:format>image/svg+xml</dc:format>
    <dc:type rdf:resource="http://purl.org/dc/dcmitype/StillImage"/>
    <dc:title/>
   </cc:Work>
  </rdf:RDF>
 </metadata>
 <g transform="translate(-1.21 -.5)">
  <g transform="matrix(.987 0 0 .965 -.134 158)">
   <path d="m37-17.8c-.384-.384-.698-28.2-.698-61.8v-61.1l-15.5-7.4c-11.4-5.43-15.5-7.82-15.2-8.99.272-1.41 4.66-1.62 39.9-1.85l39.6-.261 9.71 12 .267-3.75c.147-2.06.494-4.77.773-6.02l.506-2.26 63.4.528 3.18 8.62 11.1-9.16 43.7.54 1.32 4c.724 2.2 1.65 6.48 2.06 9.5l.741 5.5 12.8-19.5h142l5.67 4.62c3.16 2.58 6.04 4.24 6.51 3.75.463-.479 1.24-2.45 1.73-4.37l.892-3.5h46.9c41.1 0 47 .187 47.2 1.52.203 1.05-3.65 3.47-12.6 7.92-7.11 3.52-13.9 7.13-15.1 8.02l-2.14 1.61.0496 59.7c.0335 40.3-.288 59.9-.99 60.3-.572.353-13.4-7.04-28.6-16.4-15.2-9.39-28-17.1-28.6-17.1-.695 0-.849 2.01-.448 5.85 1.06 10.2.999 10.2-19.4 3.87-14.3-4.45-17.7-5.84-18.6-7.76-.911-1.8-3.34-2.99-10.5-5.14-5.12-1.54-9.72-2.81-10.2-2.81-.506-.008-.649 3.83-.327 8.8.314 4.85.182 9.44-.293 10.2-.706 1.14-6.66-.39-32.4-8.34-17.4-5.36-32.2-9.99-33-10.3-.926-.355-5.12 3.89-12.1 12.3-5.9 7.05-11.3 13-11.9 13.1-.662.16-7.24-5.34-14.6-12.2-7.74-7.22-14.3-12.5-15.4-12.5-1.1-.0156-7.74 1.18-14.8 2.65-10.4 2.19-12.8 3-12.8 4.42 0 1.37-3.69 2.97-17.1 7.44-11.4 3.79-17.4 5.36-18.1 4.7-.55-.55-1.25-4.66-1.56-9.13-.469-6.84-.812-8.06-2.16-7.67-.883.257-13.4 4.13-27.9 8.6s-27 7.87-27.9 7.54c-1.28-.49-1.42-1.72-.85-7.08.459-4.29.34-6.49-.35-6.49-.575 0-13.3 7.93-28.3 17.6-29.4 19-29 18.8-30.1 17.7z" fill="#e80007"/>
   <path d="m40-82.6v-60.9l-30.5-15 76-.171 14 16.5.581-16.5h59.8l1.63 5.6c1.48 5.1 1.78 5.47 3.32 4.17.931-.786 3.97-3.31 6.76-5.6l5.06-4.17h41.1l1.63 5.82c.897 3.2 1.64 8.94 1.66 12.8l.0261 6.93 16.4-25.5 140-.0245 14.7 11.8 2.81-11.8 90.2.0463-29.5 15.5-.008 8.68c-.004 4.78-.447 9.84-.983 11.2-.634 1.67-.634 2.57 0 2.57.62 0 .975 17.7.975 48.5 0 26.7-.216 48.5-.481 48.5s-13.5-8.07-29.5-17.9l-29-17.9v17.6l-16.8-5.27c-14.2-4.46-16.8-5.59-17.1-7.37-.176-1.15-.455-2.1-.621-2.1-.166 0-5.42-1.57-11.7-3.5-6.26-1.92-11.8-3.5-12.4-3.5-.623-.003-.882 3.92-.687 10.4l.313 10.4-15.8-4.89c-8.7-2.69-22.9-7.04-31.5-9.66-12.5-3.8-15.8-5.15-16-6.65-.214-1.35-3.74 2.26-12.5 12.7l-12.2 14.6-14.3-13.4c-8-7.46-14.8-13.1-15.3-12.6-.55.409-7.39 1.99-15.2 3.51-12.4 2.43-14.2 3.02-14.5 4.81-.25 1.69-3.07 2.97-16.1 7.3l-15.8 5.26v-9.42c0-5.18-.351-9.42-.779-9.42-.599 0-46.1 13.9-56.7 17.3-1.91.617-1.99.263-1.68-7.89l.325-8.53-6.82 4.38c-3.75 2.41-17.1 11-29.6 19-12.5 8.07-23 14.7-23.2 14.7s-.451-27.4-.451-60.9zm34 25.1 24.5-14.7.538-44.5h-12l3.49-5.45c3.09-4.83 3.49-6.21 3.49-12.1v-6.69l-11.2-12.7-50.3.117 14.7 5.54.024 52.7c.0172 37.7.336 52.6 1.13 52.6.606-.0431 12.1-6.69 25.6-14.8zm-5-33.6v-18.5h8v33l-3.25 1.98c-1.79 1.09-3.59 1.98-4 1.99-.412.002-.75-8.32-.75-18.5zm0-38.5v-6h8v12h-8zm382 50v-37h-10.1l10.1-11.7v-19.2l15.5-6.04-36.5-.125v22.6l-8 7.81v-30.4h-22v80.7l10.2 6.4c5.59 3.52 10.5 6.55 11 6.74.456.183.829-10.5.829-23.8v-24.1l2.25.0703c5.41.169 5.34-.136 5.29 21.8-.0229 11.2.183 22.9.458 25.9l.5 5.5 10 5.78c5.5 3.18 10.1 5.82 10.2 5.87.138.0524.25-16.6.25-36.9zm-267-3.21.271-18.4 7.46-7.28v20c0 22-.396 20.8 6.5 19 1.92-.507 6.09-1.44 9.25-2.07l5.75-1.14v-80.9h-35.2l-14.8 12.1v26.9h10.4l-10.3 10.5-.666 47.2 21-7.48zm.229-46.9v-6.07l7.5.73.237 11.4h-7.74zm91 26.3.0304-20.2h-30v-12.2l18 .868 12-18.7h-34.9l-16 23.9v20.1h32v11.1c0 10.9-.0616 11.2-3.06 15l-3.06 3.87-12.7-11.1c-14.6-12.8-13.9-13-12.7 3.85l.687 9.22 24.3 21.3 25.4-26.7zm59 25.2c0-11.8-.188-21.5-.418-21.5s-1.61 3.57-3.06 7.94c-1.65 4.97-3.09 7.77-3.83 7.48-.653-.255-5.91-2.38-11.7-4.73l-10.5-4.26-.581-16.4h14.8l2.63-6.07c1.45-3.34 2.63-6.49 2.63-7 0-.517-4.47-.934-10-.934h-10v-11.8h9.55c5.25 0 9.69-.164 9.86-.365.888-1.04 9.58-16.7 9.58-17.2 0-.358-11.2-.652-24.9-.652h-24.9l-.343 5.75c-.188 3.16-.343 21-.343 39.6v33.9l24.5 8.8c13.5 4.84 25.1 8.84 25.8 8.89.964.0697 1.25-4.83 1.25-21.4zm59-2.28v-22.8l-11.1-10.9 10.6-1 .559-25.3-16.4-13.2h-35.7v77.7l9.75 3.33c5.36 1.83 10.3 3.53 11 3.77.973.346 1.25-3.95 1.25-19.4v-19.8l8 7.81v34.3l9.75 4.09c5.36 2.25 10.3 4.11 11 4.13.964.0262 1.25-5.17 1.25-22.8zm-30-49.2v-5.94l8 .11v11.8h-8zm-232 62.6 24.5-7.26v-79.9l-25.8-.055c-14.2-.0302-25.8.022-25.8.116 0 .0941 2.39 4.39 5.3 9.56l5.3 9.38 19.3.571-.392 10.9-10.8.00036c-5.91 2e-4-10.8.338-10.8.75-.007.412 1.23 3.55 2.75 6.97l2.76 6.22 16 .0538v16.4l-23.3 9.24-2.74-9.8c-1.51-5.39-2.91-9.8-3.12-9.8s-.378 9.9-.378 22c0 16.9.287 22 1.25 22 .688-.0145 12.3-3.29 25.8-7.28z" fill="#020000"/>
  </g>
 </g>
</svg>
